<svg width="155" height="40" viewBox="0 0 155 40" fill="none" xmlns="http://www.w3.org/2000/svg">
<path d="M58.66 27V13H61.34L69.6 23.08H68.3V13H71.5V27H68.84L60.56 16.92H61.86V27H58.66ZM78.2123 19.3H84.9323V21.9H78.2123V19.3ZM78.4523 27H75.2123V13H85.7923V15.6H78.4523V27ZM91.3834 27V15.64H86.9034V13H99.1034V15.64H94.6234V27H91.3834ZM101.543 27.16C101.009 27.16 100.549 26.98 100.163 26.62C99.7893 26.2467 99.6027 25.7733 99.6027 25.2C99.6027 24.6267 99.7893 24.1667 100.163 23.82C100.549 23.46 101.009 23.28 101.543 23.28C102.089 23.28 102.549 23.46 102.923 23.82C103.296 24.1667 103.483 24.6267 103.483 25.2C103.483 25.7733 103.296 26.2467 102.923 26.62C102.549 26.98 102.089 27.16 101.543 27.16ZM106.217 27V13H112.277C113.53 13 114.61 13.2067 115.517 13.62C116.424 14.02 117.124 14.6 117.617 15.36C118.11 16.12 118.357 17.0267 118.357 18.08C118.357 19.12 118.11 20.02 117.617 20.78C117.124 21.5267 116.424 22.1 115.517 22.5C114.61 22.9 113.53 23.1 112.277 23.1H108.017L109.457 21.68V27H106.217ZM115.117 27L111.617 21.92H115.077L118.617 27H115.117ZM109.457 22.04L108.017 20.52H112.097C113.097 20.52 113.844 20.3067 114.337 19.88C114.83 19.44 115.077 18.84 115.077 18.08C115.077 17.3067 114.83 16.7067 114.337 16.28C113.844 15.8533 113.097 15.64 112.097 15.64H108.017L109.457 14.1V22.04ZM121.104 27V16.24H124.224V27H121.104ZM122.664 14.74C122.091 14.74 121.624 14.5733 121.264 14.24C120.904 13.9067 120.724 13.4933 120.724 13C120.724 12.5067 120.904 12.0933 121.264 11.76C121.624 11.4267 122.091 11.26 122.664 11.26C123.237 11.26 123.704 11.42 124.064 11.74C124.424 12.0467 124.604 12.4467 124.604 12.94C124.604 13.46 124.424 13.8933 124.064 14.24C123.717 14.5733 123.251 14.74 122.664 14.74ZM134.06 16.08C134.913 16.08 135.673 16.2533 136.34 16.6C137.02 16.9333 137.553 17.4533 137.94 18.16C138.326 18.8533 138.52 19.7467 138.52 20.84V27H135.4V21.32C135.4 20.4533 135.206 19.8133 134.82 19.4C134.446 18.9867 133.913 18.78 133.22 18.78C132.726 18.78 132.28 18.8867 131.88 19.1C131.493 19.3 131.186 19.6133 130.96 20.04C130.746 20.4667 130.64 21.0133 130.64 21.68V27H127.52V16.24H130.5V19.22L129.94 18.32C130.326 17.6 130.88 17.0467 131.6 16.66C132.32 16.2733 133.14 16.08 134.06 16.08ZM146.886 31.04C145.873 31.04 144.893 30.9133 143.946 30.66C143.013 30.42 142.233 30.0533 141.606 29.56L142.846 27.32C143.299 27.6933 143.873 27.9867 144.566 28.2C145.273 28.4267 145.966 28.54 146.646 28.54C147.753 28.54 148.553 28.2933 149.046 27.8C149.553 27.3067 149.806 26.5733 149.806 25.6V23.98L150.006 21.28L149.966 18.56V16.24H152.926V25.2C152.926 27.2 152.406 28.6733 151.366 29.62C150.326 30.5667 148.833 31.04 146.886 31.04ZM146.406 26.48C145.406 26.48 144.499 26.2667 143.686 25.84C142.886 25.4 142.239 24.7933 141.746 24.02C141.266 23.2333 141.026 22.32 141.026 21.28C141.026 20.2267 141.266 19.3133 141.746 18.54C142.239 17.7533 142.886 17.1467 143.686 16.72C144.499 16.2933 145.406 16.08 146.406 16.08C147.313 16.08 148.113 16.2667 148.806 16.64C149.499 17 150.039 17.5667 150.426 18.34C150.813 19.1 151.006 20.08 151.006 21.28C151.006 22.4667 150.813 23.4467 150.426 24.22C150.039 24.98 149.499 25.5467 148.806 25.92C148.113 26.2933 147.313 26.48 146.406 26.48ZM147.026 23.92C147.573 23.92 148.059 23.8133 148.486 23.6C148.913 23.3733 149.246 23.06 149.486 22.66C149.726 22.26 149.846 21.8 149.846 21.28C149.846 20.7467 149.726 20.2867 149.486 19.9C149.246 19.5 148.913 19.1933 148.486 18.98C148.059 18.7533 147.573 18.64 147.026 18.64C146.479 18.64 145.993 18.7533 145.566 18.98C145.139 19.1933 144.799 19.5 144.546 19.9C144.306 20.2867 144.186 20.7467 144.186 21.28C144.186 21.8 144.306 22.26 144.546 22.66C144.799 23.06 145.139 23.3733 145.566 23.6C145.993 23.8133 146.479 23.92 147.026 23.92Z" fill="#232222"/>
<circle cx="20" cy="20" r="20" fill="url(#paint0_linear_3271_2)"/>
<circle cx="20" cy="20" r="20" fill="black" fill-opacity="0.2"/>
<defs>
<linearGradient id="paint0_linear_3271_2" x1="3.00654" y1="3.12746e-08" x2="36.4706" y2="40" gradientUnits="userSpaceOnUse">
<stop stop-color="#9CD2EE"/>
<stop offset="1" stop-color="#00ACEE"/>
</linearGradient>
</defs>
</svg>
