<?xml version="1.0" standalone="no"?>
<!DOCTYPE svg PUBLIC "-//W3C//DTD SVG 20010904//EN"
 "http://www.w3.org/TR/2001/REC-SVG-20010904/DTD/svg10.dtd">
<svg version="1.0" xmlns="http://www.w3.org/2000/svg"
 width="500.000000pt" height="500.000000pt" viewBox="0 0 500.000000 500.000000"
 preserveAspectRatio="xMidYMid meet">
<metadata>
Created by potrace 1.14, written by Peter Selinger 2001-2017
</metadata>
<g transform="translate(0.000000,500.000000) scale(0.100000,-0.100000)"
fill="#000000" stroke="none">
<path d="M0 2500 l0 -2500 2500 0 2500 0 0 2500 0 2500 -2500 0 -2500 0 0
-2500z m2690 2310 c185 -26 288 -49 440 -100 431 -145 812 -421 1090 -789 118
-156 211 -315 279 -476 24 -55 46 -107 50 -115 4 -8 18 -49 30 -90 12 -41 26
-86 31 -100 18 -51 60 -258 72 -355 17 -143 15 -455 -5 -600 -19 -136 -79
-379 -126 -505 -31 -84 -136 -303 -187 -390 -160 -273 -425 -550 -704 -737
-68 -45 -219 -131 -280 -159 -340 -157 -646 -221 -1016 -211 -223 5 -355 24
-558 82 -536 151 -1029 528 -1318 1009 -334 554 -430 1208 -267 1825 170 644
599 1181 1183 1480 113 58 257 118 356 147 71 21 192 51 230 58 19 3 46 8 60
11 40 8 180 25 240 29 77 5 322 -3 400 -14z"/>
<path d="M2265 4269 c-211 -19 -374 -65 -571 -158 -120 -58 -260 -143 -320
-196 -6 -5 -47 -41 -91 -78 -44 -37 -89 -78 -99 -90 -100 -116 -142 -171 -197
-255 -275 -417 -363 -935 -243 -1427 125 -514 495 -967 968 -1184 228 -105
450 -152 708 -152 477 0 898 181 1233 531 98 102 129 142 219 278 123 185 225
461 259 697 17 118 18 416 1 530 -62 416 -285 828 -587 1084 -166 140 -288
216 -486 304 -129 57 -320 101 -499 115 -140 12 -179 12 -295 1z m-755 -1389
l215 -259 3 259 2 260 135 0 135 0 0 -490 0 -490 -112 0 -113 1 -215 261 -215
260 -3 -261 -2 -261 -135 0 -135 0 0 490 0 490 113 0 113 0 214 -260z m1450
155 l0 -105 -245 0 -245 0 0 -110 0 -110 215 0 215 0 0 -105 0 -105 -215 0
-215 0 0 -170 0 -170 -135 0 -135 0 0 490 0 490 380 0 380 0 0 -105z m920 -5
l0 -110 -150 0 -150 0 0 -380 0 -380 -135 0 -135 0 0 380 0 380 -150 0 -150 0
0 110 0 110 435 0 435 0 0 -110z"/>
</g>
</svg>
